<svg xmlns="http://www.w3.org/2000/svg" viewBox="0 0 24 24" width="24" height="24">
  <path fill="#FFFFFF" d="M12 0C5.373 0 0 5.373 0 12c0 5.302 3.968 9.679 9.107 10.391-.124-.895-.239-2.269.049-3.248.257-1.105 1.657-7.029 1.657-7.029s-.424-.858-.424-2.123c0-1.987 1.148-3.465 2.577-3.465 1.214 0 1.802.915 1.802 2.012 0 1.225-.781 3.057-1.186 4.755-.339 1.446.715 2.624 2.141 2.624 2.569 0 4.545-2.701 4.545-6.603 0-3.454-2.476-5.859-6.008-5.859-4.103 0-6.573 3.075-6.573 6.25 0 1.238.474 2.568 1.063 3.283.118.142.135.268.106.42-.113.495-.365 1.571-.414 1.794-.062.295-.199.355-.514.217-1.906-.908-3.107-3.705-3.107-6.724 0-5.582 4.065-10.604 11.711-10.604 6.229 0 10.514 4.508 10.514 10.467 0 6.227-4.089 10.827-9.869 10.827-1.934 0-3.753-1.004-4.376-2.195l-1.188 4.474c-.383 1.432-1.421 3.218-2.119 4.3 1.604.502 3.299.776 5.053.776 6.617 0 12-5.383 12-12C24 5.373 18.627 0 12 0"/>
</svg>
