<svg width="32" height="32" viewBox="0 0 32 32" fill="none" xmlns="http://www.w3.org/2000/svg">
<path fill-rule="evenodd" clip-rule="evenodd" d="M8.55279 14.1056C8.87376 13.9451 9.25611 13.9689 9.5547 14.168L11.589 15.5241C11.8876 15.7232 12.2699 15.747 12.5909 15.5865L15.5528 14.1056C15.8343 13.9648 16.1657 13.9648 16.4472 14.1056L19.4091 15.5865C19.7301 15.747 20.1124 15.7232 20.411 15.5241L22.4453 14.168C22.7439 13.9689 23.1262 13.9451 23.4472 14.1056L26.1579 15.4609C26.2054 15.4847 26.2539 15.5043 26.3029 15.5198C26.718 15.6517 27 16.0372 27 16.4729V29C27 29.5523 26.5523 30 26 30H6C5.44772 30 5 29.5523 5 29V16.4729C5 16.0372 5.28199 15.6517 5.69714 15.5198C5.74612 15.5043 5.79458 15.4847 5.84212 15.4609L8.55279 14.1056ZM7 17.118V28H25V17.118L23.0718 16.154L21.5204 17.1882C20.6247 17.7854 19.4776 17.8568 18.5147 17.3754L16 16.118L13.4853 17.3754C12.5224 17.8568 11.3753 17.7854 10.4796 17.1882L8.92816 16.154L7 17.118Z" fill="#222831"/>
<path fill-rule="evenodd" clip-rule="evenodd" d="M5.04217 4.71265C5.16906 4.28967 5.55839 4 5.99999 4H26C26.4416 4 26.8309 4.28967 26.9578 4.71265L29.9578 14.7127C30.0635 15.065 29.9672 15.447 29.7071 15.7071L28.7264 16.6878C27.8133 17.6009 26.4184 17.8272 25.2634 17.2498L23.0718 16.154L21.5204 17.1882C20.6246 17.7854 19.4776 17.8568 18.5147 17.3754L16 16.118L13.4853 17.3754C12.5224 17.8568 11.3753 17.7854 10.4796 17.1882L8.92815 16.154L6.73654 17.2498C5.58157 17.8272 4.18666 17.6009 3.27358 16.6878L2.29289 15.7071C2.03276 15.447 1.93646 15.065 2.04217 14.7127L5.04217 4.71265ZM6.74403 6L4.12945 14.7152L4.68779 15.2736C4.99215 15.5779 5.45713 15.6534 5.84211 15.4609L8.55278 14.1056C8.87375 13.9451 9.25611 13.9689 9.5547 14.1679L11.589 15.5241C11.8876 15.7232 12.2699 15.747 12.5909 15.5865L15.5528 14.1056C15.8343 13.9648 16.1657 13.9648 16.4472 14.1056L19.4091 15.5865C19.7301 15.747 20.1124 15.7232 20.411 15.5241L22.4453 14.1679C22.7439 13.9689 23.1262 13.9451 23.4472 14.1056L26.1579 15.4609C26.5429 15.6534 27.0078 15.5779 27.3122 15.2736L27.8705 14.7152L25.256 6H6.74403Z" fill="#32E0C4"/>
<path fill-rule="evenodd" clip-rule="evenodd" d="M19 21C17.8954 21 17 21.8954 17 23V28H21V23C21 21.8954 20.1046 21 19 21ZM15 23C15 20.7909 16.7909 19 19 19C21.2091 19 23 20.7909 23 23V30H15V23Z" fill="#222831"/>
<path fill-rule="evenodd" clip-rule="evenodd" d="M8 22C8 21.4477 8.44772 21 9 21H12C12.5523 21 13 21.4477 13 22C13 22.5523 12.5523 23 12 23H9C8.44772 23 8 22.5523 8 22Z" fill="#222831"/>
</svg>
